<svg width="49" height="34" viewBox="0 0 49 34" fill="none" xmlns="http://www.w3.org/2000/svg">
<g clip-path="url(#clip0_5529_4968)">
<path d="M6.76302 0C6.53247 0.867176 6.29931 1.57533 6.15863 2.29963C5.64672 4.91855 6.56764 7.17594 8.09815 9.29543C9.06857 10.6409 10.0025 12.0137 10.8778 13.4164C11.8495 14.9743 12.2078 16.6565 11.5526 18.4169C11.1058 19.6183 10.095 20.3488 8.95003 20.9029C8.28182 21.2272 8.1216 21.385 8.44724 22.036C9.03079 23.2075 9.67035 24.3567 10.3633 25.4724C10.6473 25.9308 10.8856 26.3457 10.8791 26.8949C10.8713 27.6391 10.9547 28.3832 10.9612 29.1274C10.9677 29.7548 10.6811 29.9151 10.0924 29.6132C4.42621 26.706 1.10467 22.2248 0.198079 16.1421C-0.365933 12.3591 0.268417 8.75127 2.14151 5.37574C3.27084 3.3395 4.73101 1.53184 6.76302 0Z" fill="url(#paint0_linear_5529_4968)"/>
<path d="M11.5303 11.713C11.3871 11.5875 11.219 11.4856 11.1161 11.3428C10.3333 10.2532 9.55434 9.16239 8.80276 8.05295C8.69725 7.89765 8.64906 7.54482 8.74935 7.44916C10.0168 6.24281 10.9663 4.83893 11.6502 3.21143C12.5893 4.94826 12.5073 10.3079 11.5303 11.7117V11.713Z" fill="url(#paint1_linear_5529_4968)"/>
<path d="M37.3954 3.04004C37.8761 4.73215 38.8048 6.05403 40.0149 7.20696C40.291 7.47034 40.4317 7.73248 40.1855 8.07537C39.3441 9.24941 38.5013 10.4247 37.6572 11.5975C37.6221 11.646 37.5609 11.6758 37.5114 11.7143C36.5331 10.7937 36.4237 4.96323 37.3954 3.04004Z" fill="url(#paint2_linear_5529_4968)"/>
<path d="M29.314 2.14067C29.5784 1.72696 29.8189 1.13962 30.6812 1.38188L30.6822 1.38384C29.6349 3.18279 29.0283 5.0132 28.7652 6.93267C28.6284 7.93136 28.6229 8.95111 28.6255 9.96099C28.6255 10.2008 28.839 10.5416 29.0591 10.6622C30.7824 11.6076 31.7101 13.1867 32.6988 14.7198C35.1866 18.576 36.2097 22.8366 36.4859 27.2979C36.5471 28.2892 36.5929 29.2832 36.6529 30.2745C36.6814 30.7638 36.4784 31.078 36.0005 31.3028C28.3819 34.8758 20.7594 34.8982 13.1148 31.375C12.5455 31.1129 12.3097 30.7609 12.3228 30.167C12.4088 26.4264 12.7475 22.7207 14.0552 19.1602C14.98 16.6432 16.3072 14.3146 18.02 12.21C18.5267 11.5877 19.294 11.1623 19.897 10.6045C20.1339 10.3847 20.3795 10.056 20.4019 9.76177C20.6051 7.10326 20.0063 4.57975 18.8823 2.15727C18.8472 2.08164 18.782 2.01049 18.7739 1.93364C18.7544 1.73362 18.7586 1.53041 18.7534 1.32915C18.9775 1.4173 19.2928 1.4436 19.4087 1.60259C19.8633 2.2312 20.3008 2.87981 20.6616 3.56059C21.5448 5.23034 22.2397 6.96773 22.5093 8.83501C22.5745 9.2882 22.7915 9.46541 23.2876 9.44927C24.1303 9.42319 24.9756 9.43944 25.8169 9.4854C26.2557 9.509 26.4643 9.37633 26.5191 8.96294C26.8525 6.46709 27.9633 4.25513 29.314 2.14067Z" fill="url(#paint3_linear_5529_4968)"/>
<path d="M20.76 21.3497C21.8499 21.3497 22.7334 20.1521 22.7334 18.6748C22.7334 17.1976 21.8499 16 20.76 16C19.6701 16 18.7866 17.1976 18.7866 18.6748C18.7866 20.1521 19.6701 21.3497 20.76 21.3497Z" fill="black"/>
<path d="M20.2065 20.2502C20.6029 20.2502 20.9242 19.8147 20.9242 19.2775C20.9242 18.7402 20.6029 18.3047 20.2065 18.3047C19.8101 18.3047 19.4888 18.7402 19.4888 19.2775C19.4888 19.8147 19.8101 20.2502 20.2065 20.2502Z" fill="#AFE7EF"/>
<path d="M28.2732 21.3497C29.3631 21.3497 30.2466 20.1521 30.2466 18.6748C30.2466 17.1976 29.3631 16 28.2732 16C27.1833 16 26.2998 17.1976 26.2998 18.6748C26.2998 20.1521 27.1833 21.3497 28.2732 21.3497Z" fill="black"/>
<path d="M27.7197 20.2502C28.1161 20.2502 28.4374 19.8147 28.4374 19.2775C28.4374 18.7402 28.1161 18.3047 27.7197 18.3047C27.3233 18.3047 27.002 18.7402 27.002 19.2775C27.002 19.8147 27.3233 20.2502 27.7197 20.2502Z" fill="#AFE7EF"/>
<path d="M43.4785 26.5C42.2118 27.6529 40.7276 28.6755 39.0215 29.5596C38.3481 29.9087 38.0186 29.7493 38.0303 29.0361C38.042 28.2089 38.0732 27.3787 38.167 26.5576C38.1692 26.5383 38.1735 26.5193 38.1768 26.5H43.4785ZM46.0869 23.5C45.6133 24.2008 45.0827 24.8679 44.4932 25.5H38.6357C39.0193 24.8296 39.4203 24.1679 39.8076 23.5H46.0869ZM47.6797 20.5C47.4007 21.1923 47.0775 21.8589 46.71 22.5H40.3672C40.3947 22.4483 40.4231 22.3966 40.4502 22.3447C40.9058 21.473 40.7495 21.3303 39.873 20.8359C39.6774 20.7255 39.4947 20.6119 39.3213 20.5H47.6797ZM48.582 17.5C48.4398 18.1872 48.26 18.8535 48.0459 19.5H38.0996C37.5817 18.927 37.2842 18.2853 37.1875 17.5H48.582ZM48.9678 14.5C48.929 15.1835 48.8591 15.8501 48.7598 16.5H37.1689C37.1936 16.1146 37.2487 15.698 37.3408 15.2451C37.3932 14.9878 37.4682 14.7405 37.5576 14.5H48.9678ZM48.8906 11.5C48.9653 12.1537 49.0011 12.8204 48.999 13.5H38.0312C38.4252 12.8095 38.9136 12.1621 39.3672 11.5H48.8906ZM48.2539 8.5C48.4591 9.15188 48.6232 9.81836 48.7441 10.5H40.0234C40.4597 9.83023 40.9081 9.16751 41.3477 8.5H48.2539ZM46.96 5.5C47.3209 6.14935 47.6365 6.8156 47.9033 7.5H41.9805C42.3543 6.84342 42.6033 6.17606 42.752 5.5H46.96ZM44.8584 2.5C45.4124 3.14565 45.9142 3.81182 46.3604 4.5H42.8994C42.9507 3.83985 42.9169 3.1729 42.8145 2.5H44.8584ZM42.3076 0.0078125C42.6357 0.288397 42.9379 0.529048 43.2178 0.791016C43.4673 1.02402 43.7092 1.26061 43.9434 1.5H42.6152C42.5559 1.25592 42.4907 1.01082 42.417 0.765625C42.3636 0.586823 42.2878 0.413883 42.2305 0.236328C42.2201 0.20529 42.2533 0.161607 42.3066 0.0078125H42.3076Z" fill="url(#paint4_linear_5529_4968)"/>
</g>
<defs>
<linearGradient id="paint0_linear_5529_4968" x1="5.94239" y1="0" x2="5.94239" y2="29.7609" gradientUnits="userSpaceOnUse">
<stop stop-color="#EE4545"/>
<stop offset="1" stop-color="#B32829"/>
</linearGradient>
<linearGradient id="paint1_linear_5529_4968" x1="10.5026" y1="3.21143" x2="10.5026" y2="11.713" gradientUnits="userSpaceOnUse">
<stop stop-color="#EE4545"/>
<stop offset="1" stop-color="#B32829"/>
</linearGradient>
<linearGradient id="paint2_linear_5529_4968" x1="38.5162" y1="3.04004" x2="38.5162" y2="11.7143" gradientUnits="userSpaceOnUse">
<stop stop-color="#EE4545"/>
<stop offset="1" stop-color="#B32829"/>
</linearGradient>
<linearGradient id="paint3_linear_5529_4968" x1="24.4887" y1="1.32471" x2="24.4887" y2="34" gradientUnits="userSpaceOnUse">
<stop stop-color="#EE4545"/>
<stop offset="1" stop-color="#B32829"/>
</linearGradient>
<linearGradient id="paint4_linear_5529_4968" x1="43.076" y1="0.00732422" x2="43.076" y2="29.7377" gradientUnits="userSpaceOnUse">
<stop stop-color="#EE4545"/>
<stop offset="1" stop-color="#B32829"/>
</linearGradient>
<clipPath id="clip0_5529_4968">
<rect width="49" height="34" fill="white"/>
</clipPath>
</defs>
</svg>
