<svg width="96" height="59" viewBox="0 0 96 59" fill="none" xmlns="http://www.w3.org/2000/svg">
<g clip-path="url(#clip0_5516_7074)">
<path d="M30.1971 0C29.9665 0.867176 29.7334 1.57533 29.5927 2.29963C29.0808 4.91855 30.0017 7.17594 31.5322 9.29543C32.5026 10.6409 33.4366 12.0137 34.3119 13.4164C35.2836 14.9743 35.6418 16.6565 34.9866 18.4169C34.5399 19.6183 33.5291 20.3488 32.3841 20.9029C31.7159 21.2272 31.5557 21.385 31.8813 22.036C32.4649 23.2075 33.1044 24.3567 33.7974 25.4724C34.0814 25.9308 34.3197 26.3457 34.3132 26.8949C34.3054 27.6391 34.3888 28.3832 34.3953 29.1274C34.4018 29.7548 34.1152 29.9151 33.5265 29.6132C27.8603 26.706 24.5387 22.2248 23.6322 16.1421C23.0681 12.3591 23.7025 8.75127 25.5756 5.37574C26.7049 3.3395 28.1651 1.53184 30.1971 0Z" fill="url(#paint0_linear_5516_7074)"/>
<path d="M34.9644 11.713C34.8211 11.5875 34.6531 11.4856 34.5502 11.3428C33.7674 10.2532 32.9884 9.16239 32.2368 8.05295C32.1313 7.89765 32.0831 7.54482 32.1834 7.44916C33.4508 6.24281 34.4004 4.83893 35.0843 3.21143C36.0234 4.94826 35.9413 10.3079 34.9644 11.7117V11.713Z" fill="url(#paint1_linear_5516_7074)"/>
<path d="M60.8295 3.04004C61.3102 4.73215 62.2389 6.05403 63.449 7.20695C63.7251 7.47034 63.8658 7.73248 63.6196 8.07537C62.7782 9.24941 61.9354 10.4247 61.0913 11.5975C61.0562 11.646 60.9949 11.6758 60.9454 11.7143C59.9672 10.7937 59.8578 4.96323 60.8295 3.04004Z" fill="url(#paint2_linear_5516_7074)"/>
<path fill-rule="evenodd" clip-rule="evenodd" d="M52.7486 2.14067C53.013 1.72696 53.2525 1.13962 54.1148 1.38188L54.1157 1.38384C53.0685 3.18278 52.4619 5.01322 52.1988 6.93266C52.062 7.93134 52.0565 8.95113 52.0591 9.96099C52.0591 10.2007 52.2727 10.5415 52.4927 10.6622C54.216 11.6076 55.1437 13.1867 56.1323 14.7198C58.6201 18.576 59.6442 22.8357 59.9204 27.2969C59.9817 28.2883 60.0275 29.283 60.0874 30.2745C60.116 30.7638 59.912 31.078 59.4341 31.3028C51.8155 34.8757 44.193 34.8983 36.5484 31.375C35.9791 31.1129 35.7433 30.7609 35.7564 30.167C35.8423 26.4265 36.1811 22.7207 37.4888 19.1602C38.4136 16.6432 39.7408 14.3146 41.4536 12.21C41.9603 11.5876 42.7275 11.1624 43.3306 10.6045C43.5675 10.3847 43.8141 10.0561 43.8364 9.76177C44.0396 7.10309 43.4401 4.57892 42.3159 2.1563C42.2807 2.08069 42.2163 2.00953 42.2085 1.93266C42.189 1.73278 42.1922 1.53027 42.187 1.32915C42.411 1.41734 42.7263 1.44365 42.8423 1.60259C43.2969 2.23119 43.7344 2.87982 44.0952 3.56059C44.9783 5.23021 45.6742 6.96692 45.9439 8.83403C46.009 9.28743 46.2251 9.46535 46.7212 9.44927C47.564 9.42318 48.41 9.43943 49.2515 9.4854C49.69 9.50888 49.8979 9.3761 49.9527 8.96294C50.2861 6.46701 51.3978 4.25519 52.7486 2.14067Z" fill="url(#paint3_linear_5516_7074)"/>
<path d="M44.1941 21.3497C45.284 21.3497 46.1675 20.1521 46.1675 18.6748C46.1675 17.1976 45.284 16 44.1941 16C43.1042 16 42.2207 17.1976 42.2207 18.6748C42.2207 20.1521 43.1042 21.3497 44.1941 21.3497Z" fill="black"/>
<path d="M43.6406 20.2502C44.037 20.2502 44.3583 19.8147 44.3583 19.2775C44.3583 18.7402 44.037 18.3047 43.6406 18.3047C43.2442 18.3047 42.9229 18.7402 42.9229 19.2775C42.9229 19.8147 43.2442 20.2502 43.6406 20.2502Z" fill="#AFE7EF"/>
<path d="M51.7073 21.3497C52.7971 21.3497 53.6807 20.1521 53.6807 18.6748C53.6807 17.1976 52.7971 16 51.7073 16C50.6174 16 49.7339 17.1976 49.7339 18.6748C49.7339 20.1521 50.6174 21.3497 51.7073 21.3497Z" fill="black"/>
<path d="M51.1537 20.2502C51.5501 20.2502 51.8715 19.8147 51.8715 19.2775C51.8715 18.7402 51.5501 18.3047 51.1537 18.3047C50.7574 18.3047 50.436 18.7402 50.436 19.2775C50.436 19.8147 50.7574 20.2502 51.1537 20.2502Z" fill="#AFE7EF"/>
<path fill-rule="evenodd" clip-rule="evenodd" d="M66.9126 26.5C65.6459 27.6529 64.1616 28.6755 62.4556 29.5596C61.7821 29.9087 61.4526 29.7493 61.4644 29.0361C61.4761 28.2089 61.5073 27.3787 61.6011 26.5576C61.6033 26.5383 61.6075 26.5193 61.6108 26.5H66.9126ZM69.521 23.5C69.0474 24.2008 68.5168 24.8679 67.9272 25.5H62.0698C62.4533 24.8296 62.8543 24.1679 63.2417 23.5H69.521ZM71.1138 20.5C70.8348 21.1923 70.5116 21.8589 70.144 22.5H63.8013C63.8288 22.4483 63.8572 22.3966 63.8843 22.3447C64.3399 21.473 64.1835 21.3303 63.3071 20.8359C63.1115 20.7255 62.9288 20.6119 62.7554 20.5H71.1138ZM72.0161 17.5C71.8738 18.1872 71.6941 18.8535 71.48 19.5H61.5337C61.0158 18.927 60.7183 18.2853 60.6216 17.5H72.0161ZM72.4019 14.5C72.3631 15.1835 72.2932 15.8501 72.1938 16.5H60.603C60.6276 16.1146 60.6828 15.698 60.7749 15.2451C60.8272 14.9878 60.9022 14.7405 60.9917 14.5H72.4019ZM72.3247 11.5C72.3993 12.1537 72.4352 12.8204 72.4331 13.5H61.4653C61.8592 12.8095 62.3477 12.1621 62.8013 11.5H72.3247ZM71.688 8.5C71.8932 9.15188 72.0573 9.81836 72.1782 10.5H63.4575C63.8938 9.83023 64.3422 9.16751 64.7817 8.5H71.688ZM70.394 5.5C70.755 6.14935 71.0706 6.8156 71.3374 7.5H65.4146C65.7884 6.84342 66.0374 6.17606 66.186 5.5H70.394ZM68.2925 2.5C68.8465 3.14565 69.3482 3.81182 69.7944 4.5H66.3335C66.3847 3.83985 66.351 3.1729 66.2485 2.5H68.2925ZM65.7417 0.00683594C66.0698 0.28752 66.3719 0.528975 66.6519 0.791016C66.9013 1.02402 67.1433 1.26061 67.3774 1.5H66.0493C65.99 1.25592 65.9248 1.01082 65.8511 0.765625C65.7977 0.586823 65.7219 0.413883 65.6646 0.236328C65.6541 0.205269 65.6873 0.16089 65.7407 0.00683594H65.7417Z" fill="url(#paint4_linear_5516_7074)"/>
</g>
<path fill-rule="evenodd" clip-rule="evenodd" d="M3.48633 45.3545C4.57017 44.7132 5.80608 44.3739 7.06543 44.373V44.3867C8.46394 44.3858 9.83179 44.8 10.9951 45.5762C12.1585 46.3526 13.0657 47.4571 13.6016 48.749C14.1375 50.041 14.2782 51.463 14.0059 52.835C13.7335 54.2067 13.0608 55.4668 12.0723 56.4561C11.0837 57.4453 9.82371 58.1193 8.45215 58.3926C7.08039 58.6658 5.65756 58.5263 4.36523 57.9912C3.07307 57.4561 1.9685 56.5495 1.19141 55.3867C0.414353 54.2239 3.02331e-07 52.8566 0 51.458V41.5146H3.48633V45.3545ZM35.9111 44.3594C36.6862 44.3559 37.458 44.4626 38.2031 44.6758C38.925 44.8846 39.6129 45.1978 40.2441 45.6055L38.7793 48.167C38.2983 47.8554 37.7814 47.6027 37.2402 47.4141C36.7667 47.256 36.2707 47.1757 35.7715 47.1768C35.2844 47.155 34.8011 47.2713 34.377 47.5117C34.2208 47.5953 34.0894 47.719 33.9971 47.8701C33.9049 48.0212 33.8546 48.1941 33.8516 48.3711C33.8424 48.5426 33.881 48.7134 33.9629 48.8643C34.0449 49.0152 34.1675 49.1409 34.3164 49.2266C34.9087 49.4942 35.534 49.6815 36.1758 49.7842C37.7252 50.1096 38.8424 50.6044 39.5273 51.2676C39.875 51.6264 40.1451 52.0535 40.3203 52.5215C40.4954 52.9894 40.5725 53.4884 40.5459 53.9873C40.5657 54.6168 40.4363 55.2422 40.1689 55.8125C39.9016 56.3827 39.5034 56.8822 39.0068 57.2695C37.833 58.1436 36.3914 58.5825 34.9297 58.5107C34.0314 58.5159 33.1363 58.3968 32.2705 58.1572C31.3897 57.907 30.547 57.538 29.7656 57.0605L31.3965 54.4238C31.8898 54.7951 32.4332 55.0956 33.0098 55.3164C33.6678 55.5705 34.369 55.6951 35.0742 55.6836C35.5586 55.7012 36.0393 55.5929 36.4688 55.3682C36.6414 55.2769 36.7847 55.1382 36.8818 54.9688C36.9789 54.7992 37.0262 54.6053 37.0176 54.4102C37.0234 54.2496 36.9872 54.0898 36.9131 53.9473C36.839 53.8049 36.7293 53.6841 36.5947 53.5967C36.1089 53.3167 35.5765 53.1262 35.0234 53.0342C33.3562 52.6778 32.1562 52.176 31.4248 51.5283C31.0553 51.1852 30.766 50.7644 30.5771 50.2969C30.3883 49.8293 30.3044 49.3258 30.332 48.8223C30.3115 48.1889 30.448 47.56 30.7295 46.9922C31.0109 46.4245 31.4289 45.9355 31.9453 45.5684C33.0976 44.739 34.4921 44.3137 35.9111 44.3594ZM22.1973 44.375C24.0717 44.3762 25.8693 45.1214 27.1943 46.4473C28.5194 47.7732 29.2636 49.5708 29.2637 51.4453C29.2637 52.8439 28.8493 54.2112 28.0723 55.374C27.2951 56.5369 26.1898 57.4435 24.8975 57.9785C23.6052 58.5134 22.1832 58.6531 20.8115 58.3799C19.4399 58.1066 18.18 57.4326 17.1914 56.4434C16.2029 55.4541 15.5301 54.194 15.2578 52.8223C14.9855 51.4503 15.1262 50.0283 15.6621 48.7363C16.198 47.4445 17.1042 46.3399 18.2676 45.5635C19.4309 44.7871 20.7987 44.3742 22.1973 44.375ZM45.5068 58.5117H42.0205V44.375H45.5068V58.5117ZM51.3535 44.9092C52.6455 44.374 54.0669 44.2341 55.4385 44.5068C56.8101 44.7797 58.0707 45.4525 59.0596 46.4414L57.748 47.7568C57.1421 47.1489 56.3953 46.7004 55.5742 46.4502C54.7531 46.1999 53.883 46.1556 53.041 46.3223C52.1988 46.489 51.41 46.861 50.7461 47.4053C50.0823 47.9495 49.563 48.6494 49.2344 49.4424C48.9058 50.2355 48.7779 51.0978 48.8623 51.9521C48.9467 52.8065 49.2413 53.6273 49.7188 54.3408C50.1961 55.054 50.8423 55.6382 51.5996 56.042C52.3572 56.4458 53.2031 56.6566 54.0615 56.6553C54.746 56.6557 55.4241 56.5214 56.0566 56.2598C56.6891 55.9982 57.2639 55.6146 57.748 55.1309L59.0596 56.4414C58.0707 57.4303 56.8101 58.1041 55.4385 58.377C54.067 58.6497 52.6454 58.5097 51.3535 57.9746C50.0615 57.4394 48.9567 56.5329 48.1797 55.3701C47.4027 54.2073 46.9883 52.8399 46.9883 51.4414C46.9883 50.043 47.4027 48.6755 48.1797 47.5127C48.9567 46.35 50.0615 45.4443 51.3535 44.9092ZM23.5664 48.1299C22.9115 47.8582 22.1906 47.7868 21.4951 47.9248C20.7994 48.063 20.1598 48.4047 19.6582 48.9062C19.1567 49.4078 18.8159 50.0475 18.6777 50.7432C18.5397 51.4388 18.611 52.1594 18.8828 52.8145C19.1547 53.4696 19.6149 54.0294 20.2051 54.4229C20.7951 54.8162 21.4882 55.0262 22.1973 55.0254C23.1466 55.0254 24.0572 54.6478 24.7285 53.9766C25.3998 53.3052 25.7773 52.3947 25.7773 51.4453C25.7782 50.7361 25.5683 50.0422 25.1748 49.4521C24.7813 48.8622 24.2214 48.4017 23.5664 48.1299ZM8.43457 48.1289C7.77961 47.8572 7.0588 47.7858 6.36328 47.9238C5.66756 48.062 5.02792 48.4037 4.52637 48.9053C4.02503 49.4067 3.68406 50.0457 3.5459 50.7412C3.40775 51.4369 3.47911 52.1583 3.75098 52.8135C4.02285 53.4685 4.48316 54.0284 5.07324 54.4219C5.66319 54.8151 6.35643 55.0243 7.06543 55.0234C8.01468 55.0234 8.92539 54.6467 9.59668 53.9756C10.268 53.3043 10.6455 52.3937 10.6455 51.4443C10.6464 50.735 10.4365 50.0413 10.043 49.4512C9.64948 48.8611 9.08965 48.4007 8.43457 48.1289ZM43.7627 38C45.0952 38 46.1757 39.0806 46.1758 40.4131C46.1758 41.7456 45.0952 42.8262 43.7627 42.8262C42.4302 42.8261 41.3506 41.7456 41.3506 40.4131C41.3507 39.0807 42.4303 38.0001 43.7627 38Z" fill="#414042"/>
<path d="M84.1316 58.4087H81.8036L78.0596 46.2407H80.0756L81.2516 50.2727C81.6676 51.6807 82.0116 52.9127 82.2836 53.9687C82.5716 55.0087 82.7556 55.7047 82.8356 56.0567L82.9556 56.5607C83.1956 55.5367 83.7796 53.4327 84.7076 50.2487L85.8596 46.2407H87.8756L89.0516 50.2487L90.8516 56.5847C91.0756 55.6407 91.6916 53.5287 92.6996 50.2487L93.9236 46.2407H95.8676L92.0276 58.4087H89.6996L88.5476 54.4247L86.8676 48.3527C86.6276 49.3767 86.0836 51.4007 85.2356 54.4247L84.1316 58.4087Z" fill="#414042"/>
<path d="M71.4036 56.9448C72.2676 56.9448 72.9556 56.7048 73.4676 56.2248C73.9796 55.7288 74.2356 55.1048 74.2356 54.3528V52.7928H72.1236C71.0996 52.7928 70.3316 52.9928 69.8196 53.3928C69.3076 53.7928 69.0516 54.2968 69.0516 54.9048C69.0516 55.5128 69.2516 56.0088 69.6516 56.3928C70.0516 56.7608 70.6356 56.9448 71.4036 56.9448ZM74.2596 56.9688C73.6356 58.0088 72.4996 58.5288 70.8516 58.5288C69.7156 58.5288 68.7956 58.1928 68.0916 57.5208C67.4036 56.8488 67.0596 56.0008 67.0596 54.9768C67.0596 53.8088 67.4996 52.9048 68.3796 52.2648C69.2756 51.6088 70.4916 51.2808 72.0276 51.2808H74.2356V50.6568C74.2356 49.6968 74.0196 48.9768 73.5876 48.4968C73.1556 48.0008 72.4276 47.7528 71.4036 47.7528C70.1076 47.7528 68.9556 48.0968 67.9476 48.7848V46.8888C68.8596 46.3288 70.0596 46.0488 71.5476 46.0488C74.6036 46.0488 76.1316 47.6008 76.1316 50.7048V58.4088H74.2596V56.9688Z" fill="#414042"/>
<path d="M63.9556 58.4089H62.0596V41.4409H63.9556V58.4089Z" fill="#414042"/>
<defs>
<linearGradient id="paint0_linear_5516_7074" x1="29.3765" y1="0" x2="29.3765" y2="29.7609" gradientUnits="userSpaceOnUse">
<stop stop-color="#EE4545"/>
<stop offset="1" stop-color="#B32829"/>
</linearGradient>
<linearGradient id="paint1_linear_5516_7074" x1="33.9366" y1="3.21143" x2="33.9366" y2="11.713" gradientUnits="userSpaceOnUse">
<stop stop-color="#EE4545"/>
<stop offset="1" stop-color="#B32829"/>
</linearGradient>
<linearGradient id="paint2_linear_5516_7074" x1="61.9503" y1="3.04004" x2="61.9503" y2="11.7143" gradientUnits="userSpaceOnUse">
<stop stop-color="#EE4545"/>
<stop offset="1" stop-color="#B32829"/>
</linearGradient>
<linearGradient id="paint3_linear_5516_7074" x1="47.9228" y1="1.32471" x2="47.9228" y2="34" gradientUnits="userSpaceOnUse">
<stop stop-color="#EE4545"/>
<stop offset="1" stop-color="#B32829"/>
</linearGradient>
<linearGradient id="paint4_linear_5516_7074" x1="66.51" y1="0.00634764" x2="66.51" y2="29.7377" gradientUnits="userSpaceOnUse">
<stop stop-color="#EE4545"/>
<stop offset="1" stop-color="#B32829"/>
</linearGradient>
<clipPath id="clip0_5516_7074">
<rect width="49" height="34" fill="white" transform="translate(23.4341)"/>
</clipPath>
</defs>
</svg>
